<?xml version="1.0" encoding="UTF-8"?>
<svg id="Layer_2" data-name="Layer 2" xmlns="http://www.w3.org/2000/svg" viewBox="0 0 379.89 316.29">
  <defs>
    <style>
      .cls-1 {
        fill: #f1ab15;
      }
    </style>
  </defs>
  <g id="Layer_1-2" data-name="Layer 1">
    <g>
      <path class="cls-1" d="M105.47,4.53c.36.18.55,1.15,1.21,1.49,19.48,10.09,38.18,20.67,57.29,31.5,5.17,2.93,10.83,4.6,15.39,8.61l-1.57,90.98c-1.17.98-8.62-2.36-10.27-3.18-12.41-6.15-25.29-14.88-37.52-21.66s-23.69-12.26-35.69-19.09L93.84.14c3.66-.82,5.37,2.09,8.11,3.42,1.09.53,2.4.39,3.52.97Z"/>
      <path class="cls-1" d="M177.83,178.14l1.53,92.03c-4.56,4.01-10.23,5.68-15.39,8.61-20.18,11.44-41.55,24.04-62.02,33.95-2.75,1.33-4.46,4.25-8.11,3.42l.47-93.03,83.52-44.98Z"/>
      <path class="cls-1" d="M83.58,111.46c.2.09.17,1.26,1.03,1.6,6.44,2.59,8.71,4.49,14.33,7.48,22,11.71,43.64,23.88,65.73,35.75v3.71c-3.89.64-6.66,3.63-9.96,5.56-19.8,11.59-45.69,27.13-66.19,36.79l-6.16,2.9c-3.31-.29-6.27-3.83-8.94-5.25-20.25-10.76-40.21-22.11-60.44-33.73-3.97-2.28-8.68-4.66-12.98-6.27v-3.71c4.3-1.61,9.01-3.99,12.98-6.27,20.54-11.79,40.87-23.19,61-34.01,2.67-1.44,6.17-6.06,9.6-4.55Z"/>
      <polygon class="cls-1" points="285.84 .14 285.36 93.18 201.84 138.15 200.31 46.12 281.55 .18 285.84 .14"/>
      <path class="cls-1" d="M213.44,183.57c12.14,6.16,24.54,14,36.24,20.46,12.14,6.71,23.55,12.31,35.69,19.09l.48,93.04-4.29-.03-81.24-45.95c-.73-6.76-.67-13.77-.52-20.57.44-20.09-.87-46.75,1.17-65.85.14-1.31.58-3.63,1.42-4.65,2.51-.39,8.54,3.19,11.06,4.47Z"/>
      <path class="cls-1" d="M304.41,114.59c16.79,8.56,33.41,19.2,49.92,28.57,8.27,4.69,16.75,9.01,25.34,13.14l.22,3.29c-4.36,2.2-8.96,4.28-13.2,6.69-20.35,11.56-40.32,23.55-61,34-1.7.86-4.56,3.74-6.85,4.47-3.97,1.28-14.68-7.2-18.74-9.38-18.96-10.18-38.74-21.31-57.06-32.19-3.19-1.9-10.05-1.93-8.04-6.89.28-.33,6.88-2.52,8.04-3.18,23.09-13.05,47.42-29.73,72.03-40.05.87-.36.68-1.49,1.39-1.96,1.74-.25,6.06,2.52,7.95,3.49Z"/>
    </g>
  </g>
</svg>
