<svg width="49" height="49" viewBox="0 0 49 49" fill="none" xmlns="http://www.w3.org/2000/svg">
<path d="M0 21.541H21.541V0H0V21.541ZM5.38525 5.38525H16.1557V16.1557H5.38525V5.38525ZM0 48.4672H21.541V26.9262H0V48.4672ZM5.38525 32.3115H16.1557V43.082H5.38525V32.3115ZM26.9262 0V21.541H48.4672V0H26.9262ZM43.082 16.1557H32.3115V5.38525H43.082V16.1557ZM26.9532 26.9262H32.3384V32.3115H26.9532V26.9262ZM32.3384 32.3115H37.7236V37.6967H32.3384V32.3115ZM26.9532 37.6967H32.3384V43.082H26.9532V37.6967ZM37.7236 37.6967H43.1089V43.082H37.7236V37.6967ZM43.1089 43.082H48.4941V48.4672H43.1089V43.082ZM32.3384 43.082H37.7236V48.4672H32.3384V43.082ZM37.7236 26.9262H43.1089V32.3115H37.7236V26.9262ZM43.1089 32.3115H48.4941V37.6967H43.1089V32.3115Z" fill="#F9EDD7"/>
</svg>
